<svg xmlns="http://www.w3.org/2000/svg" xmlns:xlink="http://www.w3.org/1999/xlink" width="50" zoomAndPan="magnify" viewBox="0 0 37.5 37.499999" height="50" preserveAspectRatio="xMidYMid meet" version="1.0"><defs><g/><clipPath id="e5a3ee439a"><path d="M 1.945312 8.46875 L 35.695312 8.46875 L 35.695312 37.007812 L 1.945312 37.007812 Z M 1.945312 8.46875 " clip-rule="nonzero"/></clipPath><clipPath id="111a43ebe1"><path d="M 8 8.46875 L 29 8.46875 L 29 27 L 8 27 Z M 8 8.46875 " clip-rule="nonzero"/></clipPath></defs><g clip-path="url(#e5a3ee439a)"><path fill="#38b6ff" d="M 28.945312 8.488281 L 35.695312 8.488281 L 18.820312 37.699219 L 1.945312 8.488281 L 14.855469 8.488281 L 18.820312 15.261719 L 22.699219 8.488281 Z M 28.945312 8.488281 " fill-opacity="1" fill-rule="nonzero"/><path fill="#38b6ff" d="M 1.945312 8.488281 L 18.820312 37.699219 L 35.695312 8.488281 L 28.945312 8.488281 L 18.820312 26.015625 L 8.609375 8.488281 Z M 1.945312 8.488281 " fill-opacity="1" fill-rule="nonzero"/></g><g clip-path="url(#111a43ebe1)"><path fill="#35495e" d="M 8.609375 8.488281 L 18.820312 26.097656 L 28.945312 8.488281 L 22.699219 8.488281 L 18.820312 15.261719 L 14.855469 8.488281 Z M 8.609375 8.488281 " fill-opacity="1" fill-rule="nonzero"/></g><g fill="#35495e" fill-opacity="1"><g transform="translate(9.079809, 7.301646)"><g><path d="M 2.125 0 L 1.265625 0 L 0.0625 -3.5625 L 0.8125 -3.5625 L 1.6875 -0.90625 L 1.734375 -0.90625 L 2.59375 -3.5625 L 3.328125 -3.5625 Z M 2.125 0 "/></g></g><g transform="translate(12.468481, 7.301646)"><g><path d="M 1.890625 0.046875 C 1.398438 0.046875 1.035156 -0.0664062 0.796875 -0.296875 C 0.554688 -0.535156 0.4375 -0.882812 0.4375 -1.34375 L 0.4375 -3.5625 L 1.140625 -3.5625 L 1.140625 -1.34375 C 1.140625 -1.082031 1.203125 -0.882812 1.328125 -0.75 C 1.453125 -0.625 1.640625 -0.5625 1.890625 -0.5625 C 2.398438 -0.5625 2.65625 -0.820312 2.65625 -1.34375 L 2.65625 -3.5625 L 3.34375 -3.5625 L 3.34375 -1.34375 C 3.34375 -0.882812 3.222656 -0.535156 2.984375 -0.296875 C 2.742188 -0.0664062 2.378906 0.046875 1.890625 0.046875 Z M 1.890625 0.046875 "/></g></g><g transform="translate(16.25266, 7.301646)"><g><path d="M 1.171875 -1.5625 L 1.171875 -0.59375 L 2.875 -0.59375 L 2.875 0 L 0.46875 0 L 0.46875 -3.5625 L 2.828125 -3.5625 L 2.828125 -2.984375 L 1.171875 -2.984375 L 1.171875 -2.140625 L 2.625 -2.140625 L 2.625 -1.5625 Z M 1.171875 -1.5625 "/></g></g><g transform="translate(19.321507, 7.301646)"><g><path d="M 1.578125 0.046875 C 1.335938 0.046875 1.117188 0.0195312 0.921875 -0.03125 C 0.722656 -0.09375 0.5625 -0.175781 0.4375 -0.28125 C 0.3125 -0.382812 0.210938 -0.492188 0.140625 -0.609375 L 0.53125 -1.078125 L 0.59375 -1.078125 C 0.695312 -0.921875 0.832031 -0.796875 1 -0.703125 C 1.164062 -0.609375 1.359375 -0.5625 1.578125 -0.5625 C 1.765625 -0.5625 1.90625 -0.597656 2 -0.671875 C 2.101562 -0.753906 2.15625 -0.867188 2.15625 -1.015625 C 2.15625 -1.097656 2.140625 -1.164062 2.109375 -1.21875 C 2.078125 -1.28125 2.023438 -1.328125 1.953125 -1.359375 C 1.878906 -1.398438 1.78125 -1.4375 1.65625 -1.46875 L 1.203125 -1.578125 C 0.878906 -1.648438 0.640625 -1.769531 0.484375 -1.9375 C 0.328125 -2.113281 0.25 -2.335938 0.25 -2.609375 C 0.25 -2.804688 0.296875 -2.976562 0.390625 -3.125 C 0.492188 -3.28125 0.644531 -3.398438 0.84375 -3.484375 C 1.039062 -3.578125 1.269531 -3.625 1.53125 -3.625 C 1.8125 -3.625 2.046875 -3.585938 2.234375 -3.515625 C 2.429688 -3.441406 2.597656 -3.328125 2.734375 -3.171875 L 2.390625 -2.703125 L 2.328125 -2.703125 C 2.222656 -2.804688 2.101562 -2.882812 1.96875 -2.9375 C 1.84375 -2.988281 1.695312 -3.015625 1.53125 -3.015625 C 1.34375 -3.015625 1.195312 -2.976562 1.09375 -2.90625 C 0.988281 -2.84375 0.9375 -2.75 0.9375 -2.625 C 0.9375 -2.519531 0.972656 -2.429688 1.046875 -2.359375 C 1.117188 -2.296875 1.242188 -2.242188 1.421875 -2.203125 L 1.890625 -2.109375 C 2.234375 -2.035156 2.484375 -1.910156 2.640625 -1.734375 C 2.796875 -1.554688 2.875 -1.328125 2.875 -1.046875 C 2.875 -0.828125 2.820312 -0.632812 2.71875 -0.46875 C 2.625 -0.300781 2.476562 -0.171875 2.28125 -0.078125 C 2.09375 0.00390625 1.859375 0.046875 1.578125 0.046875 Z M 1.578125 0.046875 "/></g></g><g transform="translate(22.387913, 7.301646)"><g><path d="M 1.171875 -1.5625 L 1.171875 -0.59375 L 2.875 -0.59375 L 2.875 0 L 0.46875 0 L 0.46875 -3.5625 L 2.828125 -3.5625 L 2.828125 -2.984375 L 1.171875 -2.984375 L 1.171875 -2.140625 L 2.625 -2.140625 L 2.625 -1.5625 Z M 1.171875 -1.5625 "/></g></g><g transform="translate(25.456761, 7.301646)"><g><path d="M 2.859375 -3.5625 L 2.859375 -2.96875 L 1.828125 -2.96875 L 1.828125 0 L 1.125 0 L 1.125 -2.96875 L 0.09375 -2.96875 L 0.09375 -3.5625 Z M 2.859375 -3.5625 "/></g></g></g></svg>